HIERARCHY
ROOT Joint1
{
	OFFSET 0.000000 0.000000 0.000000
	CHANNELS 6 Xposition Yposition Zposition Xrotation Yrotation Zrotation
	JOINT Joint2
	{
		OFFSET -0.000000 0.000000 1.456275
		CHANNELS 6 Xposition Yposition Zposition Xrotation Yrotation Zrotation
		JOINT Joint3
		{
			OFFSET -0.000000 0.000002 1.471446
			CHANNELS 6 Xposition Yposition Zposition Xrotation Yrotation Zrotation
			JOINT Joint4
			{
				OFFSET 0.625745 0.000000 0.917755
				CHANNELS 6 Xposition Yposition Zposition Xrotation Yrotation Zrotation
				JOINT Joint5
				{
					OFFSET -0.629534 0.000001 0.940221
					CHANNELS 6 Xposition Yposition Zposition Xrotation Yrotation Zrotation
					JOINT Joint6
					{
						OFFSET -0.000001 0.113772 1.960660
						CHANNELS 6 Xposition Yposition Zposition Xrotation Yrotation Zrotation
						JOINT Joint7
						{
							OFFSET -0.669733 -0.113771 0.388340
							CHANNELS 6 Xposition Yposition Zposition Xrotation Yrotation Zrotation
							End Site
							{
								OFFSET 0.005509 0.005509 0.438980
							}
						}
					}
				}
			}
		}
	}
}
MOTION
Frames: 29
Frame Time: 0.041667
0.000000 0.000000 0.000000 -0.000000 1.019410 58.622796 -0.000000 -0.000000 1.456275 -0.000000 24.749551 0.000000 -0.000000 0.000002 1.471446 -0.000002 -1.133464 -67.316869 0.625744 0.000001 0.917755 0.000000 124.529074 -0.000001 -0.629533 0.000001 0.940221 0.000000 1.709734 -5.073929 -0.000001 0.113772 1.960660 -88.303889 65.455001 -0.000003 -0.669733 -0.113771 0.388340 0.180735 3.049148 74.414522 
0.000000 0.000000 0.000000 -0.000000 1.019410 56.723970 -0.000000 0.000000 1.456275 -0.000001 22.491308 -0.000000 -0.000000 0.000002 1.471446 -0.000003 -1.133466 -65.137964 0.625745 0.000001 0.917755 0.000004 124.868904 -0.000002 -0.629534 0.000001 0.940220 -0.000001 1.709735 -4.910244 -0.000001 0.113772 1.960660 -88.303903 66.249010 -0.000001 -0.669733 -0.113771 0.388340 0.163124 3.079137 76.374588 
0.000000 0.000000 0.000000 -0.000000 1.019410 54.830795 -0.000000 0.000000 1.456275 0.000000 20.239772 -0.000000 -0.000000 0.000002 1.471446 -0.000003 -1.133464 -62.965526 0.625745 0.000000 0.917755 0.000008 125.207722 -0.000001 -0.629534 0.000001 0.940220 0.000000 1.709738 -4.747045 -0.000001 0.113772 1.960661 -88.303889 67.040656 0.000000 -0.669733 -0.113771 0.388340 0.144546 3.108420 78.328903 
0.000000 0.000000 0.000000 -0.000000 1.019410 52.941705 -0.000000 -0.000000 1.456275 -0.000000 17.993105 0.000001 -0.000000 0.000002 1.471446 -0.000003 -1.133465 -60.797795 0.625745 0.000000 0.917755 0.000009 125.545803 0.000000 -0.629533 0.000001 0.940221 0.000002 1.709735 -4.584198 -0.000001 0.113772 1.960660 -88.303889 67.830602 -0.000005 -0.669733 -0.113771 0.388340 0.125017 3.136997 80.279066 
0.000000 0.000000 0.000000 -0.000000 1.019410 51.051081 -0.000000 0.000000 1.456275 0.000000 15.744612 -0.000001 -0.000000 0.000002 1.471446 -0.000002 -1.133463 -58.628295 0.625744 0.000000 0.917755 0.000005 125.884157 -0.000001 -0.629534 0.000001 0.940221 -0.000001 1.709737 -4.421221 -0.000001 0.113772 1.960661 -88.303882 68.621183 -0.000003 -0.669733 -0.113771 0.388340 0.104518 3.164911 82.230860 
0.000000 0.000000 0.000000 -0.000000 1.019410 49.159433 -0.000000 -0.000000 1.456275 -0.000001 13.494905 0.000004 -0.000000 0.000002 1.471445 -0.000003 -1.133464 -56.457620 0.625745 0.000000 0.917755 0.000005 126.222702 -0.000002 -0.629533 0.000001 0.940222 0.000000 1.709733 -4.258152 -0.000001 0.113772 1.960660 -88.303896 69.412194 -0.000006 -0.669733 -0.113771 0.388340 0.083062 3.192126 84.183789 
0.000000 0.000000 0.000000 -0.000000 1.019410 47.268307 -0.000000 -0.000000 1.456275 0.000001 11.245812 -0.000002 -0.000000 0.000002 1.471445 -0.000002 -1.133463 -54.287542 0.625745 0.000000 0.917755 0.000005 126.561138 -0.000001 -0.629534 0.000001 0.940221 -0.000000 1.709741 -4.095132 -0.000001 0.113772 1.960661 -88.303889 70.202986 -0.000005 -0.669733 -0.113771 0.388340 0.060689 3.218589 86.136226 
0.000000 0.000000 0.000000 -0.000000 1.019410 45.377164 -0.000000 -0.000000 1.456275 0.000000 8.996704 -0.000002 -0.000000 0.000002 1.471445 -0.000002 -1.133463 -52.117448 0.625745 0.000000 0.917755 0.000005 126.899601 -0.000002 -0.629533 0.000001 0.940221 0.000000 1.709737 -3.932107 -0.000001 0.113772 1.960660 -88.303896 70.993785 -0.000000 -0.669733 -0.113771 0.388340 0.037440 3.244276 88.088752 
0.000000 0.000000 0.000000 -0.000000 1.019410 43.485492 -0.000000 0.000000 1.456275 0.000000 6.746960 0.000003 -0.000000 0.000002 1.471445 -0.000002 -1.133463 -49.946742 0.625744 0.000000 0.917755 0.000003 127.238146 -0.000001 -0.629534 0.000001 0.940221 0.000001 1.709733 -3.769038 -0.000001 0.113772 1.960660 -88.303889 71.784803 -0.000003 -0.669733 -0.113771 0.388341 0.013313 3.269163 90.041878 
0.000000 0.000000 0.000000 -0.000000 1.019410 41.594892 -0.000000 0.000000 1.456275 -0.000000 4.498501 -0.000000 -0.000000 0.000002 1.471445 -0.000001 -1.133463 -47.777279 0.625745 0.000000 0.917755 0.000004 127.576500 -0.000002 -0.629534 0.000001 0.940221 0.000000 1.709739 -3.606061 -0.000001 0.113772 1.960660 -88.303896 72.575377 0.000004 -0.669733 -0.113771 0.388341 -0.011645 3.293203 91.993953 
0.000000 0.000000 0.000000 -0.000000 1.019410 39.705908 -0.000000 0.000000 1.456275 -0.000000 2.251959 -0.000002 -0.000000 0.000002 1.471446 -0.000002 -1.133464 -45.609654 0.625745 0.000000 0.917755 0.000003 127.914581 -0.000001 -0.629534 0.000001 0.940220 -0.000000 1.709739 -3.443224 -0.000001 0.113772 1.960661 -88.303896 73.365282 -0.000013 -0.669733 -0.113771 0.388340 -0.037377 3.316362 93.944416 
0.000000 0.000000 0.000000 -0.000000 1.019410 37.812624 -0.000000 -0.000000 1.456275 0.000000 0.000300 -0.000003 -0.000000 0.000002 1.471446 -0.000001 -1.133463 -43.437100 0.625745 0.000000 0.917755 0.000003 128.253413 -0.000001 -0.629534 0.000001 0.940221 0.000001 1.709733 -3.280015 -0.000001 0.113772 1.960660 -88.303896 74.156969 -0.000002 -0.669733 -0.113771 0.388340 -0.063940 3.338681 95.899380 
0.000000 0.000000 0.000000 -0.000000 1.019410 35.913415 -0.000000 -0.000000 1.456275 -0.000000 -2.258392 -0.000001 -0.000000 0.000002 1.471445 -0.000001 -1.133464 -41.257765 0.625745 0.000000 0.917755 0.000003 128.593283 -0.000002 -0.629534 0.000001 0.940221 -0.000000 1.709737 -3.116296 -0.000000 0.113772 1.960661 -88.303896 74.951135 -0.000012 -0.669733 -0.113771 0.388340 -0.091349 3.360148 97.860512 
0.000000 0.000000 0.000000 -0.000000 1.019410 34.030352 -0.000000 0.000000 1.456275 0.000000 -4.497901 0.000001 -0.000000 0.000002 1.471446 -0.000001 -1.133463 -39.096932 0.625745 0.000000 0.917755 0.000003 128.930312 -0.000002 -0.629534 0.000001 0.940221 0.000001 1.709740 -2.953969 -0.000001 0.113772 1.960661 -88.303896 75.738561 -0.000027 -0.669733 -0.113771 0.388340 -0.119236 3.380495 99.805026 
0.000000 0.000000 0.000000 -0.000000 1.019410 32.169327 -0.000000 0.000000 1.456275 0.000000 -6.711194 0.000001 -0.000000 0.000002 1.471446 -0.000001 -1.133464 -36.961401 0.625745 0.000000 0.917755 0.000004 129.263379 -0.000002 -0.629534 0.000001 0.940221 -0.000000 1.709736 -2.793541 -0.000001 0.113772 1.960660 -88.303903 76.516765 -0.000028 -0.669733 -0.113771 0.388340 -0.147457 3.399664 101.726836 
0.000000 0.000000 0.000000 -0.000000 1.019410 30.248080 -0.000000 0.000000 1.456275 -0.000000 -8.996101 -0.000000 -0.000000 0.000002 1.471446 -0.000001 -1.133462 -34.756763 0.625745 0.000000 0.917755 0.000005 129.607197 -0.000001 -0.629534 0.000001 0.940221 -0.000000 1.709739 -2.627923 -0.000001 0.113772 1.960661 -88.303909 77.320152 -0.000012 -0.669733 -0.113771 0.388340 -0.177248 3.418454 103.710876 
0.000000 0.000000 0.000000 -0.000000 1.019410 28.244579 -0.000000 0.000000 1.456275 -0.000000 -11.378844 -0.000002 -0.000000 0.000002 1.471445 -0.000001 -1.133463 -32.457721 0.625745 0.000000 0.917755 0.000004 129.965768 -0.000002 -0.629534 0.000001 0.940221 0.000000 1.709738 -2.455213 -0.000001 0.113772 1.960661 -88.303882 78.157943 -0.000023 -0.669733 -0.113771 0.388340 -0.208999 3.436938 105.779911 
0.000000 0.000000 0.000000 -0.000000 1.019410 26.465813 -0.000000 -0.000000 1.456275 0.000000 -13.494304 0.000000 -0.000000 0.000002 1.471446 -0.000000 -1.133463 -30.416591 0.625745 0.000000 0.917755 0.000004 130.284096 -0.000001 -0.629534 0.000001 0.940221 -0.000000 1.709734 -2.301876 -0.000001 0.113772 1.960661 -88.303903 78.901751 -0.000013 -0.669733 -0.113771 0.388340 -0.237721 3.452380 107.616898 
0.000000 0.000000 0.000000 -0.000000 1.019410 25.164500 -0.000000 -0.000000 1.456275 -0.000000 -15.041943 0.000001 -0.000000 0.000002 1.471446 0.000000 -1.133464 -28.923324 0.625745 0.000000 0.917755 0.000005 130.516992 -0.000001 -0.629534 0.000001 0.940221 0.000001 1.709739 -2.189697 -0.000001 0.113772 1.960661 -88.303889 79.445905 -0.000007 -0.669733 -0.113771 0.388340 -0.259047 3.463088 108.960840 
0.000000 0.000000 0.000000 -0.000000 1.019410 24.047105 -0.000000 0.000000 1.456275 0.000000 -16.370842 -0.000001 -0.000000 0.000002 1.471446 -0.000001 -1.133462 -27.641105 0.625745 0.000000 0.917755 0.000003 130.716966 -0.000001 -0.629534 0.000001 0.940221 -0.000000 1.709739 -2.093375 -0.000001 0.113772 1.960661 -88.303896 79.913159 -0.000002 -0.669733 -0.113771 0.388341 -0.277555 3.471885 110.114848 
0.000000 0.000000 0.000000 -0.000000 1.019410 22.683543 -0.000000 0.000000 1.456275 0.000000 -17.992506 -0.000000 -0.000000 0.000002 1.471446 -0.000000 -1.133461 -26.076416 0.625745 0.000000 0.917755 0.000002 130.961009 -0.000001 -0.629534 0.000001 0.940221 -0.000000 1.709738 -1.975831 -0.000001 0.113772 1.960661 -88.303903 80.483343 -0.000012 -0.669733 -0.113771 0.388339 -0.300375 3.482113 111.523103 
0.000000 0.000000 0.000000 -0.000000 1.019410 20.819199 -0.000000 -0.000000 1.456275 0.000000 -20.209748 0.000001 -0.000000 0.000002 1.471446 0.000000 -1.133461 -23.937071 0.625745 0.000000 0.917755 0.000003 131.294650 -0.000001 -0.629534 0.000001 0.940221 0.000000 1.709738 -1.815116 -0.000001 0.113772 1.960660 -88.303903 81.262941 -0.000015 -0.669733 -0.113771 0.388341 -0.331968 3.495181 113.448582 
0.000000 0.000000 0.000000 -0.000000 1.019410 18.901271 -0.000000 0.000000 1.456275 0.000000 -22.490710 0.000002 -0.000000 0.000002 1.471446 -0.000001 -1.133462 -21.736244 0.625744 0.000000 0.917755 0.000004 131.637908 -0.000001 -0.629534 0.000001 0.940221 0.000000 1.709739 -1.649783 -0.000001 0.113772 1.960660 -88.303909 82.064935 -0.000010 -0.669733 -0.113771 0.388340 -0.364911 3.507516 115.429446 
0.000000 0.000000 0.000000 -0.000000 1.019410 17.406749 -0.000000 0.000000 1.456275 0.000001 -24.268125 -0.000000 -0.000001 0.000002 1.471445 -0.000000 -1.133462 -20.021274 0.625745 0.000000 0.917755 0.000003 131.905378 -0.000001 -0.629533 0.000001 0.940221 0.000000 1.709737 -1.520951 -0.000001 0.113772 1.960660 -88.303909 82.689883 -0.000036 -0.669733 -0.113771 0.388339 -0.390866 3.516336 116.973027 
0.000000 0.000000 0.000000 -0.000000 1.019410 16.229822 -0.000000 0.000000 1.456275 -0.000000 -25.667829 0.000000 -0.000000 0.000002 1.471446 -0.000001 -1.133461 -18.670742 0.625744 0.000000 0.917755 0.000003 132.115994 -0.000002 -0.629534 0.000001 0.940221 -0.000000 1.709735 -1.419496 -0.000001 0.113772 1.960660 -88.303903 83.182026 -0.000032 -0.669733 -0.113771 0.388340 -0.411466 3.522787 118.188596 
0.000000 0.000000 0.000000 -0.000000 1.019410 15.119006 -0.000000 0.000000 1.456275 -0.000000 -26.988909 0.000001 -0.000001 0.000002 1.471446 -0.000000 -1.133463 -17.396075 0.625745 0.000000 0.917755 0.000003 132.314793 -0.000001 -0.629533 0.000001 0.940221 0.000000 1.709737 -1.323738 -0.000000 0.113772 1.960660 -88.303923 83.646526 -0.000016 -0.669733 -0.113771 0.388340 -0.431033 3.528473 119.335904 
0.000000 0.000000 0.000000 -0.000000 1.019410 13.884595 -0.000000 -0.000000 1.456275 -0.000000 -28.456977 0.000000 -0.000000 0.000002 1.471446 -0.000000 -1.133463 -15.979581 0.625745 0.000000 0.917755 0.000003 132.535709 -0.000001 -0.629534 0.000001 0.940221 0.000000 1.709739 -1.217327 -0.000001 0.113772 1.960660 -88.303903 84.162711 -0.000031 -0.669733 -0.113771 0.388340 -0.452902 3.534334 120.610868 
0.000000 0.000000 0.000000 -0.000000 1.019410 12.584077 -0.000000 -0.000000 1.456275 0.000000 -30.003662 -0.000000 -0.000000 0.000002 1.471446 0.000000 -1.133460 -14.487234 0.625744 0.000000 0.917755 0.000003 132.768468 -0.000001 -0.629534 0.000001 0.940221 0.000000 1.709737 -1.105218 -0.000001 0.113772 1.960660 -88.303909 84.706531 -0.000030 -0.669733 -0.113771 0.388341 -0.476083 3.539981 121.954120 
0.000000 0.000000 0.000000 -0.000000 1.019410 11.336732 -0.000000 -0.000000 1.456275 0.000001 -31.487111 0.000000 -0.000000 0.000002 1.471446 -0.000001 -1.133460 -13.055901 0.625745 0.000000 0.917754 0.000004 132.991692 -0.000001 -0.629533 0.000001 0.940221 -0.000000 1.709736 -0.997692 -0.000001 0.113772 1.960660 -88.303937 85.228118 -0.000028 -0.669733 -0.113771 0.388340 -0.498431 3.544887 123.242458 
